# xmcd CD database file
#
# Track frame offsets:
#	150
#	13226
#	29231
#	52654
#	74088
#	86731
#	100893
#	120235
#	140515
#	168164
#	184949
#	200764
#	218011
#
# Disc length: 3117 seconds
#
# Revision: 0
# Processed by: cddbd v1.4PL0 Copyright (c) Steve Scherf et al.
# Submitted via: CDex 1.40Release
#
DISCID=bd0c2b0d
DTITLE=Junior Kimbrough - Do The Rump!
DYEAR=1900
DGENRE=Blues
TTITLE0=Keep Your Hands off Her
TTITLE1=I Feel Good, Little Girl
TTITLE2=You Better Run
TTITLE3=I'm So Glad Trouble Don't Last Always
TTITLE4=Done Got Old
TTITLE5=Please Don't Leave Me, Baby
TTITLE6=Come on and Go With Me 
TTITLE7=Do the Rump!
TTITLE8=I Want to Know What's Wrong With You
TTITLE9=Nobody But You Baby 
TTITLE10=Too Late Baby
TTITLE11=My Mama Done Told Me 
TTITLE12=Walk With Me
EXTD=ID3G: 0
EXTT0=
EXTT1=
EXTT2=
EXTT3=
EXTT4=
EXTT5=
EXTT6=
EXTT7=
EXTT8=
EXTT9=
EXTT10=
EXTT11=
EXTT12=
PLAYORDER=
